<svg width="738" height="154" viewBox="0 0 738 154" fill="none" xmlns="http://www.w3.org/2000/svg">
<path d="M17.351 117C15.8247 117 14.5395 116.598 13.4952 115.795C12.5312 114.911 12.0493 113.747 12.0493 112.301V27.5944C12.0493 26.2288 12.4911 25.1042 13.3747 24.2206C14.2583 23.3369 15.3829 22.8951 16.7485 22.8951H46.0282C50.848 22.8951 55.1857 23.9394 59.0415 26.0279C62.9776 28.0362 66.0702 30.8075 68.3194 34.342C70.6489 37.8764 71.8137 41.9732 71.8137 46.6322C71.8137 50.97 70.6489 54.8257 68.3194 58.1995C65.9899 61.5733 62.9374 64.1438 59.162 65.9111C64.544 67.357 68.8817 70.0881 72.1752 74.1046C75.4686 78.0407 77.1154 83.0612 77.1154 89.1662C77.1154 94.6285 75.8703 99.4482 73.3801 103.625C70.8899 107.802 67.4358 111.096 63.0177 113.506C58.68 115.835 53.6996 117 48.0766 117H17.351ZM21.4477 107.963H48.0766C51.9324 107.963 55.3464 107.2 58.3185 105.674C61.2907 104.147 63.6202 101.979 65.3071 99.1671C66.994 96.3556 67.8374 93.0219 67.8374 89.1662C67.8374 85.5514 66.994 82.4186 65.3071 79.7677C63.6202 77.0366 61.2907 74.948 58.3185 73.5021C55.3464 71.9759 51.9324 71.2127 48.0766 71.2127H21.4477V107.963ZM21.4477 62.1758H46.0282C50.848 62.1758 54.8242 60.8102 57.957 58.079C61.0898 55.3479 62.6562 51.5323 62.6562 46.6322C62.6562 41.8125 61.0898 38.1576 57.957 35.6674C54.8242 33.1772 50.848 31.9321 46.0282 31.9321H21.4477V62.1758ZM124.627 117.602C118.201 117.602 112.457 116.157 107.397 113.265C102.336 110.373 98.3598 106.397 95.4679 101.336C92.5761 96.2752 91.1302 90.5318 91.1302 84.1055C91.1302 77.5989 92.5761 71.8152 95.4679 66.7545C98.3598 61.6938 102.336 57.7176 107.397 54.8257C112.457 51.9339 118.201 50.488 124.627 50.488C131.053 50.488 136.757 51.9339 141.737 54.8257C146.798 57.7176 150.774 61.6938 153.666 66.7545C156.558 71.8152 158.044 77.5989 158.124 84.1055C158.124 90.5318 156.638 96.2752 153.666 101.336C150.774 106.397 146.798 110.373 141.737 113.265C136.757 116.157 131.053 117.602 124.627 117.602ZM124.627 109.168C129.286 109.168 133.463 108.084 137.158 105.915C140.854 103.746 143.745 100.774 145.834 96.9982C147.922 93.2228 148.967 88.9252 148.967 84.1055C148.967 79.2858 147.922 74.9882 145.834 71.2127C143.745 67.357 140.854 64.3447 137.158 62.1758C133.463 60.0069 129.286 58.9225 124.627 58.9225C119.968 58.9225 115.791 60.0069 112.096 62.1758C108.401 64.3447 105.469 67.357 103.3 71.2127C101.211 74.9882 100.167 79.2858 100.167 84.1055C100.167 88.9252 101.211 93.2228 103.3 96.9982C105.469 100.774 108.401 103.746 112.096 105.915C115.791 108.084 119.968 109.168 124.627 109.168ZM232.68 117C231.314 117 230.19 116.558 229.306 115.675C228.423 114.791 227.981 113.707 227.981 112.421V81.0932C227.981 76.1128 227.017 72.016 225.089 68.8029C223.241 65.5897 220.671 63.1799 217.377 61.5733C214.164 59.9668 210.509 59.1635 206.413 59.1635C202.476 59.1635 198.902 59.9266 195.689 61.4528C192.556 62.9791 190.066 65.0676 188.218 67.7185C186.371 70.3693 185.447 73.3816 185.447 76.7554H178.82C178.98 71.6947 180.346 67.1963 182.917 63.2602C185.487 59.2438 188.901 56.111 193.158 53.8618C197.416 51.5323 202.155 50.3675 207.377 50.3675C213.08 50.3675 218.181 51.5724 222.679 53.9823C227.178 56.3118 230.712 59.7659 233.282 64.3447C235.933 68.9234 237.259 74.5062 237.259 81.0932V112.421C237.259 113.707 236.817 114.791 235.933 115.675C235.05 116.558 233.965 117 232.68 117ZM180.868 117C179.422 117 178.257 116.598 177.374 115.795C176.571 114.911 176.169 113.787 176.169 112.421V55.7897C176.169 54.3438 176.571 53.2192 177.374 52.4159C178.257 51.5323 179.422 51.0904 180.868 51.0904C182.234 51.0904 183.318 51.5323 184.121 52.4159C185.005 53.2192 185.447 54.3438 185.447 55.7897V112.421C185.447 113.787 185.005 114.911 184.121 115.795C183.318 116.598 182.234 117 180.868 117ZM287.114 117.602C280.768 117.602 275.104 116.157 270.124 113.265C265.224 110.293 261.328 106.276 258.436 101.215C255.625 96.1547 254.219 90.4514 254.219 84.1055C254.219 77.6792 255.585 71.9357 258.316 66.875C261.047 61.8143 264.782 57.838 269.522 54.9462C274.261 51.9741 279.723 50.488 285.909 50.488C290.809 50.488 295.307 51.4519 299.404 53.3798C303.581 55.3077 307.236 58.1995 310.369 62.0553C311.252 63.0192 311.574 64.0635 311.333 65.1881C311.092 66.2324 310.409 67.1562 309.284 67.9594C308.401 68.6021 307.397 68.8431 306.272 68.6824C305.228 68.4414 304.304 67.8389 303.501 66.875C298.842 61.5733 292.978 58.9225 285.909 58.9225C281.41 58.9225 277.434 60.0069 273.98 62.1758C270.606 64.3447 267.955 67.3168 266.027 71.0923C264.18 74.8677 263.256 79.2054 263.256 84.1055C263.256 88.9252 264.26 93.2228 266.268 96.9982C268.277 100.774 271.088 103.746 274.703 105.915C278.318 108.084 282.455 109.168 287.114 109.168C290.246 109.168 293.098 108.766 295.669 107.963C298.319 107.079 300.649 105.754 302.657 103.987C303.621 103.183 304.625 102.742 305.669 102.661C306.714 102.581 307.678 102.902 308.561 103.625C309.525 104.509 310.047 105.513 310.128 106.638C310.288 107.762 309.927 108.726 309.043 109.529C303.179 114.911 295.869 117.602 287.114 117.602ZM334.073 90.1301C332.627 90.1301 331.462 89.6883 330.579 88.8047C329.775 87.9211 329.374 86.7965 329.374 85.4309V27.5944C329.374 26.1484 329.775 25.0238 330.579 24.2206C331.462 23.3369 332.627 22.8951 334.073 22.8951C335.438 22.8951 336.523 23.3369 337.326 24.2206C338.21 25.0238 338.652 26.1484 338.652 27.5944V85.4309C338.652 86.7965 338.21 87.9211 337.326 88.8047C336.523 89.6883 335.438 90.1301 334.073 90.1301ZM385.885 117C384.519 117 383.395 116.558 382.511 115.675C381.627 114.791 381.185 113.707 381.185 112.421V81.0932C381.185 76.1128 380.222 72.016 378.294 68.8029C376.446 65.5897 373.876 63.1799 370.582 61.5733C367.369 59.9668 363.714 59.1635 359.617 59.1635C355.681 59.1635 352.107 59.9266 348.893 61.4528C345.761 62.9791 343.27 65.0676 341.423 67.7185C339.575 70.3693 338.652 73.3816 338.652 76.7554H332.024C332.185 71.6947 333.551 67.1963 336.121 63.2602C338.692 59.2438 342.106 56.111 346.363 53.8618C350.62 51.5323 355.36 50.3675 360.581 50.3675C366.285 50.3675 371.385 51.5724 375.884 53.9823C380.382 56.3118 383.917 59.7659 386.487 64.3447C389.138 68.9234 390.463 74.5062 390.463 81.0932V112.421C390.463 113.707 390.022 114.791 389.138 115.675C388.254 116.558 387.17 117 385.885 117ZM334.073 117C332.627 117 331.462 116.598 330.579 115.795C329.775 114.911 329.374 113.787 329.374 112.421V55.7897C329.374 54.3438 329.775 53.2192 330.579 52.4159C331.462 51.5323 332.627 51.0904 334.073 51.0904C335.438 51.0904 336.523 51.5323 337.326 52.4159C338.21 53.2192 338.652 54.3438 338.652 55.7897V112.421C338.652 113.787 338.21 114.911 337.326 115.795C336.523 116.598 335.438 117 334.073 117Z" fill="#1D4ED7"/>
<path d="M514.581 115.799L492.958 94.2756C492.157 93.4748 491.757 92.5738 491.757 91.5727C491.757 90.5717 492.157 89.6707 492.958 88.8698C493.692 88.1357 494.56 87.7687 495.561 87.7687C496.562 87.7687 497.463 88.1357 498.264 88.8698L519.987 110.493C520.721 111.294 521.088 112.195 521.088 113.196C521.088 114.13 520.721 114.998 519.987 115.799C519.186 116.6 518.285 117 517.284 117C516.283 117 515.382 116.6 514.581 115.799ZM485.149 118.001C479.343 118.001 474.004 117 469.132 114.998C464.26 112.996 460.023 110.193 456.419 106.589C452.882 102.985 450.112 98.7471 448.11 93.8752C446.174 89.0033 445.207 83.6643 445.207 77.858C445.207 72.1186 446.174 66.8129 448.11 61.941C450.112 57.0691 452.882 52.8312 456.419 49.2274C460.023 45.6235 464.26 42.8205 469.132 40.8183C474.004 38.8162 479.343 37.8151 485.149 37.8151C490.889 37.8151 496.195 38.8162 501.067 40.8183C505.938 42.8205 510.176 45.6235 513.78 49.2274C517.384 52.8312 520.154 57.0691 522.089 61.941C524.091 66.8129 525.092 72.1186 525.092 77.858C525.092 83.6643 524.091 89.0033 522.089 93.8752C520.154 98.7471 517.384 102.985 513.78 106.589C510.176 110.193 505.938 112.996 501.067 114.998C496.195 117 490.889 118.001 485.149 118.001ZM485.149 110.593C489.754 110.593 494.026 109.792 497.963 108.191C501.901 106.522 505.304 104.22 508.174 101.283C511.111 98.2799 513.38 94.8095 514.981 90.872C516.583 86.8677 517.384 82.5297 517.384 77.858C517.384 73.2531 516.583 68.9819 514.981 65.0443C513.38 61.04 511.111 57.5696 508.174 54.6332C505.304 51.6299 501.901 49.3275 497.963 47.7258C494.026 46.0573 489.754 45.2231 485.149 45.2231C480.478 45.2231 476.173 46.0573 472.236 47.7258C468.298 49.3275 464.861 51.6299 461.925 54.6332C459.055 57.5696 456.819 61.04 455.217 65.0443C453.616 68.9819 452.815 73.2531 452.815 77.858C452.815 82.5297 453.616 86.8677 455.217 90.872C456.819 94.8095 459.055 98.2799 461.925 101.283C464.861 104.22 468.298 106.522 472.236 108.191C476.173 109.792 480.478 110.593 485.149 110.593ZM572.333 118.602C566.26 118.602 560.854 117.434 556.115 115.098C551.444 112.762 547.773 109.525 545.104 105.388C542.501 101.25 541.199 96.5114 541.199 91.1723V42.7204C541.199 41.5858 541.566 40.6515 542.301 39.9174C543.035 39.1833 543.969 38.8162 545.104 38.8162C546.238 38.8162 547.172 39.1833 547.907 39.9174C548.641 40.6515 549.008 41.5858 549.008 42.7204V91.1723C549.008 95.1099 549.975 98.5803 551.911 101.583C553.913 104.587 556.683 106.956 560.22 108.691C563.757 110.36 567.795 111.194 572.333 111.194C576.804 111.194 580.775 110.36 584.246 108.691C587.716 106.956 590.419 104.587 592.354 101.583C594.356 98.5803 595.357 95.1099 595.357 91.1723V42.7204C595.357 41.5858 595.724 40.6515 596.459 39.9174C597.193 39.1833 598.127 38.8162 599.262 38.8162C600.463 38.8162 601.397 39.1833 602.065 39.9174C602.799 40.6515 603.166 41.5858 603.166 42.7204V91.1723C603.166 96.5114 601.831 101.25 599.162 105.388C596.559 109.525 592.921 112.762 588.25 115.098C583.645 117.434 578.339 118.602 572.333 118.602ZM627.125 117C625.991 117 625.056 116.633 624.322 115.899C623.588 115.165 623.221 114.23 623.221 113.096V42.7204C623.221 41.5858 623.588 40.6515 624.322 39.9174C625.056 39.1833 625.991 38.8162 627.125 38.8162C628.26 38.8162 629.194 39.1833 629.928 39.9174C630.662 40.6515 631.029 41.5858 631.029 42.7204V113.096C631.029 114.23 630.662 115.165 629.928 115.899C629.194 116.633 628.26 117 627.125 117ZM649.881 117C648.747 117 647.813 116.633 647.078 115.899C646.411 115.165 646.044 114.33 645.977 113.396C645.911 112.395 646.178 111.494 646.778 110.693L698.534 45.8237H650.282C649.081 45.8237 648.146 45.5234 647.479 44.9227C646.812 44.3221 646.478 43.4879 646.478 42.4201C646.478 41.419 646.845 40.5848 647.579 39.9174C648.313 39.1833 649.247 38.8162 650.382 38.8162H704.64C705.841 38.8162 706.776 39.1833 707.443 39.9174C708.111 40.6515 708.478 41.5191 708.544 42.5202C708.678 43.4545 708.444 44.2554 707.844 44.9227L655.888 109.992H704.64C705.708 109.992 706.609 110.326 707.343 110.994C708.144 111.594 708.544 112.428 708.544 113.496C708.544 114.497 708.144 115.332 707.343 115.999C706.609 116.666 705.708 117 704.64 117H649.881Z" fill="#1D4ED7"/>
<rect x="419.5" y="3.5" width="315" height="147" rx="6.5" stroke="#1D4ED7" stroke-width="7" stroke-linejoin="round"/>
</svg>
